<?xml version="1.0" standalone="no"?>
<!DOCTYPE svg PUBLIC "-//W3C//DTD SVG 20010904//EN"
 "http://www.w3.org/TR/2001/REC-SVG-20010904/DTD/svg10.dtd">
<svg version="1.0" xmlns="http://www.w3.org/2000/svg"
 width="242.000000pt" height="242.000000pt" viewBox="0 0 242.000000 242.000000"
 preserveAspectRatio="xMidYMid meet">
<metadata>
Created by potrace 1.14, written by Peter Selinger 2001-2017
</metadata>
<g transform="translate(0.000000,242.000000) scale(0.100000,-0.100000)"
fill="#000000" stroke="none">
<path d="M160 2404 c-67 -23 -124 -77 -140 -133 -15 -54 -14 -2077 2 -2122 18
-52 55 -96 102 -119 43 -20 50 -20 1092 -18 1189 3 1094 -4 1157 87 l32 46 0
1060 c0 1056 0 1060 -21 1100 -11 22 -40 54 -63 70 l-43 30 -1051 2 c-579 1
-1059 -1 -1067 -3z"/>
</g>
</svg>
