<svg
  width="20"
  height="20"
  viewBox="0 0 20 20"
  fill="none"
  xmlns="http://www.w3.org/2000/svg"
>
<path
    d="M5.83333 6.66666H14.1667M5.83333 10H9.16667M10 16.6667L6.66667 13.3333H4.16667C3.72464 13.3333 3.30072 13.1577 2.98816 12.8452C2.67559 12.5326 2.5 12.1087 2.5 11.6667V4.99999C2.5 4.55797 2.67559 4.13404 2.98816 3.82148C3.30072 3.50892 3.72464 3.33333 4.16667 3.33333H15.8333C16.2754 3.33333 16.6993 3.50892 17.0118 3.82148C17.3244 4.13404 17.5 4.55797 17.5 4.99999V11.6667C17.5 12.1087 17.3244 12.5326 17.0118 12.8452C16.6993 13.1577 16.2754 13.3333 15.8333 13.3333H13.3333L10 16.6667Z"
    stroke="white"
    stroke-width="2"
    stroke-linecap="round"
    stroke-linejoin="round"
  />
</svg>
